<svg width="800" height="400" viewBox="0 0 800 400" xmlns="http://www.w3.org/2000/svg"><defs><pattern id="satori_pattern_id_0" x="0" y="0" width="1" height="1" patternUnits="objectBoundingBox"><linearGradient id="satori_biid_0" x1="0" y1="0" x2="0" y2="1" spreadMethod="pad"><stop offset="0%" stop-color="#dbf4ff"/><stop offset="100%" stop-color="#fff1f1"/></linearGradient><rect x="0" y="0" width="800" height="400" fill="url(#satori_biid_0)"/></pattern></defs><mask id="satori_om-id"><rect x="0" y="0" width="800" height="400" fill="#fff"/></mask><rect x="0" y="0" width="800" height="400" fill="url(#satori_pattern_id_0)"/><clipPath id="satori_bct-id-0"><path d="M257.3 151.5L246.3 185.1L236.4 185.1L251.5 141.5L263.4 141.5L278.4 185.1L268.5 185.1L257.6 151.5L257.3 151.5ZM245.7 175.2L245.7 168.0L269.0 168.0L269.0 175.2L245.7 175.2ZM281.7 141.5L290.9 141.5L290.9 185.1L281.7 185.1L281.7 141.5ZM296.8 163.6L316.7 163.6L316.7 170.8L296.8 170.8L296.8 163.6ZM331.5 197.4L322.5 197.4L322.5 152.4L331.4 152.4L331.4 157.9L331.8 157.9Q332.4 156.6 333.5 155.2Q334.7 153.8 336.5 152.9Q338.4 152.0 341.1 152.0L341.1 152.0Q344.7 152.0 347.7 153.8Q350.7 155.7 352.6 159.4Q354.4 163.2 354.4 168.8L354.4 168.8Q354.4 174.3 352.6 178.0Q350.9 181.8 347.8 183.7Q344.8 185.7 341.1 185.7L341.1 185.7Q338.5 185.7 336.6 184.8Q334.8 183.9 333.6 182.6Q332.4 181.2 331.8 179.9L331.8 179.9L331.5 179.9L331.5 197.4ZM331.3 168.8L331.3 168.8Q331.3 171.7 332.1 173.9Q333.0 176.0 334.5 177.2Q336.0 178.4 338.2 178.4L338.2 178.4Q340.4 178.4 342.0 177.2Q343.5 176.0 344.3 173.8Q345.1 171.6 345.1 168.8L345.1 168.8Q345.1 165.9 344.3 163.8Q343.5 161.6 342.0 160.4Q340.5 159.2 338.2 159.2L338.2 159.2Q336.0 159.2 334.5 160.4Q333.0 161.5 332.1 163.7Q331.3 165.8 331.3 168.8ZM373.2 185.8L373.2 185.8Q368.2 185.8 364.6 183.6Q361.0 181.5 359.0 177.7Q357.1 173.9 357.1 168.9L357.1 168.9Q357.1 163.8 359.0 160.0Q361.0 156.2 364.6 154.1Q368.2 152.0 373.2 152.0L373.2 152.0Q378.2 152.0 381.8 154.1Q385.4 156.2 387.3 160.0Q389.3 163.8 389.3 168.9L389.3 168.9Q389.3 173.9 387.3 177.7Q385.4 181.5 381.8 183.6Q378.2 185.8 373.2 185.8ZM373.2 178.7L373.2 178.7Q375.5 178.7 377.0 177.4Q378.5 176.2 379.3 173.9Q380.1 171.7 380.1 168.8L380.1 168.8Q380.1 166.0 379.3 163.7Q378.5 161.5 377.0 160.2Q375.5 158.9 373.2 158.9L373.2 158.9Q370.9 158.9 369.4 160.2Q367.9 161.5 367.1 163.7Q366.3 166.0 366.3 168.8L366.3 168.8Q366.3 171.7 367.1 173.9Q367.9 176.2 369.4 177.4Q370.9 178.7 373.2 178.7ZM408.5 185.1L398.9 185.1L390.0 152.4L399.1 152.4L404.2 174.4L404.5 174.4L409.8 152.4L418.8 152.4L424.2 174.3L424.5 174.3L429.4 152.4L438.6 152.4L429.7 185.1L420.1 185.1L414.5 164.5L414.1 164.5L408.5 185.1ZM455.5 185.8L455.5 185.8Q450.5 185.8 446.8 183.7Q443.2 181.7 441.2 177.9Q439.3 174.1 439.3 168.9L439.3 168.9Q439.3 163.9 441.2 160.0Q443.2 156.2 446.8 154.1Q450.3 152.0 455.2 152.0L455.2 152.0Q458.4 152.0 461.2 153.0Q464.0 154.0 466.1 156.1Q468.2 158.2 469.4 161.3Q470.5 164.4 470.5 168.6L470.5 168.6L470.5 171.1L442.9 171.1L442.9 165.5L462.0 165.5Q462.0 163.5 461.1 162.0Q460.3 160.5 458.8 159.6Q457.3 158.7 455.3 158.7L455.3 158.7Q453.2 158.7 451.7 159.7Q450.1 160.6 449.2 162.2Q448.3 163.8 448.3 165.8L448.3 165.8L448.3 171.1Q448.3 173.5 449.2 175.3Q450.1 177.1 451.7 178.0Q453.4 179.0 455.7 179.0L455.7 179.0Q457.2 179.0 458.4 178.6Q459.7 178.1 460.6 177.3Q461.5 176.4 462.0 175.2L462.0 175.2L470.4 175.8Q469.7 178.8 467.7 181.0Q465.8 183.3 462.7 184.5Q459.6 185.8 455.5 185.8ZM483.5 185.1L474.5 185.1L474.5 152.4L483.3 152.4L483.3 158.1L483.6 158.1Q484.5 155.1 486.6 153.5Q488.7 151.9 491.5 151.9L491.5 151.9Q492.2 151.9 492.9 152.0Q493.7 152.1 494.3 152.2L494.3 152.2L494.3 160.3Q493.7 160.1 492.6 160.0Q491.4 159.8 490.5 159.8L490.5 159.8Q488.5 159.8 486.9 160.7Q485.4 161.5 484.4 163.1Q483.5 164.6 483.5 166.6L483.5 166.6L483.5 185.1ZM510.4 185.8L510.4 185.8Q505.3 185.8 501.7 183.7Q498.1 181.7 496.1 177.9Q494.1 174.1 494.1 168.9L494.1 168.9Q494.1 163.9 496.1 160.0Q498.1 156.2 501.6 154.1Q505.2 152.0 510.0 152.0L510.0 152.0Q513.2 152.0 516.0 153.0Q518.9 154.0 520.9 156.1Q523.0 158.2 524.2 161.3Q525.4 164.4 525.4 168.6L525.4 168.6L525.4 171.1L497.8 171.1L497.8 165.5L516.8 165.5Q516.8 163.5 516.0 162.0Q515.1 160.5 513.6 159.6Q512.1 158.7 510.2 158.7L510.2 158.7Q508.1 158.7 506.5 159.7Q504.9 160.6 504.0 162.2Q503.1 163.8 503.1 165.8L503.1 165.8L503.1 171.1Q503.1 173.5 504.0 175.3Q504.9 177.1 506.6 178.0Q508.2 179.0 510.5 179.0L510.5 179.0Q512.0 179.0 513.3 178.6Q514.5 178.1 515.4 177.3Q516.3 176.4 516.8 175.2L516.8 175.2L525.2 175.8Q524.6 178.8 522.6 181.0Q520.6 183.3 517.5 184.5Q514.4 185.8 510.4 185.8ZM541.4 185.7L541.4 185.7Q537.6 185.7 534.6 183.7Q531.6 181.8 529.9 178.0Q528.1 174.3 528.1 168.8L528.1 168.8Q528.1 163.2 529.9 159.4Q531.7 155.7 534.7 153.8Q537.8 152.0 541.4 152.0L541.4 152.0Q544.1 152.0 545.9 152.9Q547.8 153.8 548.9 155.2Q550.1 156.6 550.7 157.9L550.7 157.9L550.9 157.9L550.9 141.5L560.0 141.5L560.0 185.1L551.0 185.1L551.0 179.9L550.7 179.9Q550.0 181.2 548.9 182.6Q547.7 183.9 545.9 184.8Q544.0 185.7 541.4 185.7ZM544.3 178.4L544.3 178.4Q546.4 178.4 548.0 177.2Q549.5 176.0 550.3 173.9Q551.1 171.7 551.1 168.8L551.1 168.8Q551.1 165.8 550.3 163.7Q549.5 161.5 548.0 160.4Q546.4 159.2 544.3 159.2L544.3 159.2Q542.0 159.2 540.5 160.4Q538.9 161.6 538.2 163.8Q537.4 165.9 537.4 168.8L537.4 168.8Q537.4 171.6 538.2 173.8Q539.0 176.0 540.5 177.2Q542.0 178.4 544.3 178.4Z "/></clipPath><defs><pattern id="satori_pattern_id-0_0" x="0" y="0" width="1" height="1" patternUnits="objectBoundingBox"><linearGradient id="satori_biid-0_0" x1="0" y1="0" x2="1" y2="0" spreadMethod="pad"><stop offset="0%" stop-color="rgb(255, 77, 77)"/><stop offset="100%" stop-color="rgb(249, 203, 40)"/></linearGradient><rect x="0" y="0" width="330" height="73" fill="url(#satori_biid-0_0)"/></pattern></defs><mask id="satori_om-id-0"><rect x="235" y="127" width="330" height="73" fill="#fff"/></mask><rect x="235" y="127" width="330" height="73" fill="url(#satori_pattern_id-0_0)" clip-path="url(#satori_bct-id-0)"/><clipPath id="satori_bct-id-1"><path d="M172.0 258.1L162.8 258.1L162.8 214.5L180.0 214.5Q185.0 214.5 188.5 216.2Q192.0 218.0 193.8 221.2Q195.6 224.4 195.6 228.7L195.6 228.7Q195.6 233.1 193.8 236.2Q191.9 239.3 188.4 241.0Q184.8 242.7 179.8 242.7L179.8 242.7L168.2 242.7L168.2 235.2L178.3 235.2Q180.9 235.2 182.7 234.5Q184.4 233.8 185.3 232.3Q186.1 230.9 186.1 228.7L186.1 228.7Q186.1 226.6 185.3 225.1Q184.4 223.6 182.7 222.8Q180.9 222.0 178.2 222.0L178.2 222.0L172.0 222.0L172.0 258.1ZM176.4 238.3L186.4 238.3L197.2 258.1L187.0 258.1L176.4 238.3ZM214.4 258.8L214.4 258.8Q209.3 258.8 205.7 256.7Q202.0 254.7 200.1 250.9Q198.1 247.1 198.1 241.9L198.1 241.9Q198.1 236.9 200.1 233.0Q202.0 229.2 205.6 227.1Q209.2 225.0 214.0 225.0L214.0 225.0Q217.2 225.0 220.0 226.0Q222.8 227.0 224.9 229.1Q227.0 231.2 228.2 234.3Q229.4 237.4 229.4 241.6L229.4 241.6L229.4 244.1L201.7 244.1L201.7 238.5L220.8 238.5Q220.8 236.5 220.0 235.0Q219.1 233.5 217.6 232.6Q216.1 231.7 214.1 231.7L214.1 231.7Q212.1 231.7 210.5 232.7Q208.9 233.6 208.0 235.2Q207.1 236.8 207.1 238.8L207.1 238.8L207.1 244.1Q207.1 246.5 208.0 248.3Q208.9 250.1 210.6 251.0Q212.2 252.0 214.5 252.0L214.5 252.0Q216.0 252.0 217.3 251.6Q218.5 251.1 219.4 250.3Q220.3 249.4 220.8 248.2L220.8 248.2L229.2 248.8Q228.5 251.8 226.6 254.0Q224.6 256.3 221.5 257.5Q218.4 258.8 214.4 258.8ZM248.1 258.8L248.1 258.8Q243.1 258.8 239.4 256.6Q235.8 254.5 233.9 250.7Q232.0 246.9 232.0 241.9L232.0 241.9Q232.0 236.9 233.9 233.1Q235.9 229.3 239.5 227.1Q243.1 225.0 248.0 225.0L248.0 225.0Q252.3 225.0 255.5 226.5Q258.8 228.1 260.6 230.9Q262.5 233.7 262.7 237.5L262.7 237.5L254.1 237.5Q253.8 235.0 252.2 233.5Q250.7 232.0 248.2 232.0L248.2 232.0Q246.1 232.0 244.5 233.2Q243.0 234.3 242.1 236.5Q241.2 238.7 241.2 241.8L241.2 241.8Q241.2 244.9 242.1 247.1Q242.9 249.3 244.5 250.4Q246.1 251.6 248.2 251.6L248.2 251.6Q249.8 251.6 251.0 250.9Q252.2 250.3 253.1 249.1Q253.9 247.9 254.1 246.1L254.1 246.1L262.7 246.1Q262.5 249.9 260.7 252.7Q258.8 255.6 255.7 257.2Q252.5 258.8 248.1 258.8ZM275.6 258.1L266.5 258.1L266.5 225.4L275.6 225.4L275.6 258.1ZM271.1 221.2L271.1 221.2Q269.1 221.2 267.6 219.8Q266.2 218.5 266.2 216.6L266.2 216.6Q266.2 214.7 267.6 213.3Q269.1 212.0 271.1 212.0L271.1 212.0Q273.1 212.0 274.6 213.3Q276.0 214.7 276.0 216.6L276.0 216.6Q276.0 218.5 274.6 219.8Q273.1 221.2 271.1 221.2ZM289.9 270.4L280.9 270.4L280.9 225.4L289.8 225.4L289.8 230.9L290.2 230.9Q290.8 229.6 292.0 228.2Q293.1 226.8 294.9 225.9Q296.8 225.0 299.5 225.0L299.5 225.0Q303.1 225.0 306.1 226.8Q309.2 228.7 311.0 232.4Q312.8 236.2 312.8 241.8L312.8 241.8Q312.8 247.3 311.0 251.0Q309.3 254.8 306.3 256.7Q303.2 258.7 299.5 258.7L299.5 258.7Q296.9 258.7 295.0 257.8Q293.2 256.9 292.0 255.6Q290.8 254.2 290.2 252.9L290.2 252.9L289.9 252.9L289.9 270.4ZM289.8 241.8L289.8 241.8Q289.8 244.7 290.6 246.9Q291.4 249.0 292.9 250.2Q294.4 251.4 296.6 251.4L296.6 251.4Q298.8 251.4 300.4 250.2Q301.9 249.0 302.7 246.8Q303.5 244.6 303.5 241.8L303.5 241.8Q303.5 238.9 302.7 236.8Q301.9 234.6 300.4 233.4Q298.9 232.2 296.6 232.2L296.6 232.2Q294.4 232.2 292.9 233.4Q291.4 234.5 290.6 236.7Q289.8 238.8 289.8 241.8ZM331.7 258.8L331.7 258.8Q326.7 258.8 323.0 256.7Q319.4 254.7 317.5 250.9Q315.5 247.1 315.5 241.9L315.5 241.9Q315.5 236.9 317.5 233.0Q319.4 229.2 323.0 227.1Q326.5 225.0 331.4 225.0L331.4 225.0Q334.6 225.0 337.4 226.0Q340.2 227.0 342.3 229.1Q344.4 231.2 345.6 234.3Q346.7 237.4 346.7 241.6L346.7 241.6L346.7 244.1L319.1 244.1L319.1 238.5L338.2 238.5Q338.2 236.5 337.4 235.0Q336.5 233.5 335.0 232.6Q333.5 231.7 331.5 231.7L331.5 231.7Q329.4 231.7 327.9 232.7Q326.3 233.6 325.4 235.2Q324.5 236.8 324.5 238.8L324.5 238.8L324.5 244.1Q324.5 246.5 325.4 248.3Q326.3 250.1 327.9 251.0Q329.6 252.0 331.9 252.0L331.9 252.0Q333.4 252.0 334.6 251.6Q335.9 251.1 336.8 250.3Q337.7 249.4 338.2 248.2L338.2 248.2L346.6 248.8Q345.9 251.8 343.9 254.0Q342.0 256.3 338.9 257.5Q335.8 258.8 331.7 258.8Z M401.6 228.6L392.2 228.6Q391.8 227.0 391.0 225.8Q390.2 224.6 389.0 223.8Q387.9 222.9 386.4 222.5Q384.9 222.1 383.1 222.1L383.1 222.1Q379.8 222.1 377.2 223.7Q374.7 225.4 373.3 228.5Q371.9 231.7 371.9 236.3L371.9 236.3Q371.9 240.8 373.3 244.0Q374.7 247.2 377.2 248.9Q379.7 250.6 383.2 250.6L383.2 250.6Q386.3 250.6 388.5 249.4Q390.8 248.3 392.0 246.3Q393.1 244.2 393.1 241.4L393.1 241.4L395.0 241.7L383.8 241.7L383.8 234.8L402.0 234.8L402.0 240.3Q402.0 246.0 399.6 250.1Q397.2 254.3 392.9 256.5Q388.6 258.7 383.1 258.7L383.1 258.7Q377.0 258.7 372.4 256.0Q367.7 253.3 365.1 248.3Q362.5 243.3 362.5 236.3L362.5 236.3Q362.5 231.0 364.1 226.9Q365.6 222.7 368.4 219.8Q371.2 216.9 374.9 215.4Q378.6 213.9 383.0 213.9L383.0 213.9Q386.7 213.9 389.9 215.0Q393.1 216.0 395.5 218.0Q398.0 220.0 399.6 222.7Q401.2 225.4 401.6 228.6L401.6 228.6ZM421.7 258.8L421.7 258.8Q416.6 258.8 413.0 256.7Q409.4 254.7 407.4 250.9Q405.5 247.1 405.5 241.9L405.5 241.9Q405.5 236.9 407.4 233.0Q409.4 229.2 412.9 227.1Q416.5 225.0 421.3 225.0L421.3 225.0Q424.6 225.0 427.4 226.0Q430.2 227.0 432.3 229.1Q434.4 231.2 435.5 234.3Q436.7 237.4 436.7 241.6L436.7 241.6L436.7 244.1L409.1 244.1L409.1 238.5L428.2 238.5Q428.2 236.5 427.3 235.0Q426.5 233.5 425.0 232.6Q423.5 231.7 421.5 231.7L421.5 231.7Q419.4 231.7 417.8 232.7Q416.2 233.6 415.3 235.2Q414.4 236.8 414.4 238.8L414.4 238.8L414.4 244.1Q414.4 246.5 415.3 248.3Q416.2 250.1 417.9 251.0Q419.6 252.0 421.8 252.0L421.8 252.0Q423.4 252.0 424.6 251.6Q425.9 251.1 426.8 250.3Q427.7 249.4 428.1 248.2L428.1 248.2L436.5 248.8Q435.9 251.8 433.9 254.0Q431.9 256.3 428.8 257.5Q425.7 258.8 421.7 258.8ZM449.7 239.2L449.7 239.2L449.7 258.1L440.6 258.1L440.6 225.4L449.3 225.4L449.3 231.2L449.7 231.2Q450.8 228.3 453.3 226.6Q455.9 225.0 459.5 225.0L459.5 225.0Q462.9 225.0 465.5 226.5Q468.0 228.0 469.4 230.7Q470.8 233.5 470.8 237.3L470.8 237.3L470.8 258.1L461.7 258.1L461.7 238.9Q461.8 235.9 460.2 234.2Q458.6 232.5 455.9 232.5L455.9 232.5Q454.1 232.5 452.7 233.3Q451.3 234.1 450.5 235.6Q449.7 237.1 449.7 239.2ZM490.9 258.8L490.9 258.8Q485.8 258.8 482.2 256.7Q478.5 254.7 476.6 250.9Q474.6 247.1 474.6 241.9L474.6 241.9Q474.6 236.9 476.6 233.0Q478.5 229.2 482.1 227.1Q485.7 225.0 490.5 225.0L490.5 225.0Q493.7 225.0 496.5 226.0Q499.3 227.0 501.4 229.1Q503.5 231.2 504.7 234.3Q505.9 237.4 505.9 241.6L505.9 241.6L505.9 244.1L478.2 244.1L478.2 238.5L497.3 238.5Q497.3 236.5 496.5 235.0Q495.6 233.5 494.1 232.6Q492.6 231.7 490.6 231.7L490.6 231.7Q488.6 231.7 487.0 232.7Q485.4 233.6 484.5 235.2Q483.6 236.8 483.6 238.8L483.6 238.8L483.6 244.1Q483.6 246.5 484.5 248.3Q485.4 250.1 487.1 251.0Q488.7 252.0 491.0 252.0L491.0 252.0Q492.5 252.0 493.8 251.6Q495.0 251.1 495.9 250.3Q496.8 249.4 497.3 248.2L497.3 248.2L505.7 248.8Q505.1 251.8 503.1 254.0Q501.1 256.3 498.0 257.5Q494.9 258.8 490.9 258.8ZM518.9 258.1L509.8 258.1L509.8 225.4L518.6 225.4L518.6 231.1L518.9 231.1Q519.8 228.1 522.0 226.5Q524.1 224.9 526.8 224.9L526.8 224.9Q527.5 224.9 528.3 225.0Q529.1 225.1 529.7 225.2L529.7 225.2L529.7 233.3Q529.0 233.1 527.9 233.0Q526.8 232.8 525.8 232.8L525.8 232.8Q523.8 232.8 522.3 233.7Q520.7 234.5 519.8 236.1Q518.9 237.6 518.9 239.6L518.9 239.6L518.9 258.1ZM540.7 258.7L540.7 258.7Q537.6 258.7 535.2 257.6Q532.7 256.5 531.3 254.4Q529.9 252.2 529.9 249.0L529.9 249.0Q529.9 246.3 530.9 244.4Q531.9 242.5 533.6 241.4Q535.3 240.3 537.5 239.7Q539.7 239.1 542.2 238.9L542.2 238.9Q545.0 238.6 546.8 238.3Q548.5 238.1 549.3 237.5Q550.1 237.0 550.1 236.0L550.1 236.0L550.1 235.8Q550.1 233.8 548.8 232.7Q547.6 231.6 545.2 231.6L545.2 231.6Q542.8 231.6 541.3 232.7Q539.9 233.8 539.4 235.4L539.4 235.4L531.0 234.7Q531.7 231.7 533.5 229.5Q535.4 227.3 538.4 226.2Q541.4 225.0 545.3 225.0L545.3 225.0Q548.0 225.0 550.5 225.6Q553.0 226.3 555.0 227.6Q556.9 228.9 558.0 231.0Q559.2 233.1 559.2 236.1L559.2 236.1L559.2 258.1L550.6 258.1L550.6 253.6L550.3 253.6Q549.5 255.1 548.2 256.3Q546.9 257.4 545.0 258.1Q543.2 258.7 540.7 258.7ZM543.3 252.5L543.3 252.5Q545.3 252.5 546.9 251.7Q548.4 250.9 549.3 249.5Q550.2 248.2 550.2 246.4L550.2 246.4L550.2 243.0Q549.7 243.2 549.0 243.5Q548.3 243.7 547.4 243.9Q546.4 244.0 545.5 244.2Q544.6 244.3 543.9 244.4L543.9 244.4Q542.3 244.7 541.1 245.2Q539.9 245.7 539.2 246.5Q538.6 247.4 538.6 248.7L538.6 248.7Q538.6 250.5 539.9 251.5Q541.3 252.5 543.3 252.5ZM561.9 225.4L581.6 225.4L581.6 232.2L561.9 232.2L561.9 225.4ZM566.4 249.3L566.4 217.6L575.5 217.6L575.5 248.1Q575.5 249.3 575.9 250.0Q576.2 250.7 576.9 251.0Q577.6 251.3 578.5 251.3L578.5 251.3Q579.2 251.3 579.8 251.1Q580.5 251.0 580.8 251.0L580.8 251.0L582.2 257.7Q581.6 257.9 580.3 258.2Q579.1 258.5 577.3 258.6L577.3 258.6Q574.0 258.7 571.6 257.7Q569.1 256.7 567.7 254.6Q566.4 252.5 566.4 249.3L566.4 249.3ZM600.0 258.8L600.0 258.8Q595.0 258.8 591.4 256.6Q587.8 254.5 585.8 250.7Q583.9 246.9 583.9 241.9L583.9 241.9Q583.9 236.8 585.8 233.0Q587.8 229.2 591.4 227.1Q595.0 225.0 600.0 225.0L600.0 225.0Q604.9 225.0 608.6 227.1Q612.2 229.2 614.1 233.0Q616.1 236.8 616.1 241.9L616.1 241.9Q616.1 246.9 614.1 250.7Q612.2 254.5 608.6 256.6Q604.9 258.8 600.0 258.8ZM600.0 251.7L600.0 251.7Q602.3 251.7 603.8 250.4Q605.3 249.2 606.1 246.9Q606.9 244.7 606.9 241.8L606.9 241.8Q606.9 239.0 606.1 236.7Q605.3 234.5 603.8 233.2Q602.3 231.9 600.0 231.9L600.0 231.9Q597.7 231.9 596.2 233.2Q594.7 234.5 593.9 236.7Q593.1 239.0 593.1 241.8L593.1 241.8Q593.1 244.7 593.9 246.9Q594.7 249.2 596.2 250.4Q597.7 251.7 600.0 251.7ZM629.1 258.1L620.0 258.1L620.0 225.4L628.8 225.4L628.8 231.1L629.2 231.1Q630.1 228.1 632.2 226.5Q634.3 224.9 637.0 224.9L637.0 224.9Q637.7 224.9 638.5 225.0Q639.3 225.1 639.9 225.2L639.9 225.2L639.9 233.3Q639.2 233.1 638.1 233.0Q637.0 232.8 636.0 232.8L636.0 232.8Q634.0 232.8 632.5 233.7Q630.9 234.5 630.0 236.1Q629.1 237.6 629.1 239.6L629.1 239.6L629.1 258.1Z "/></clipPath><defs><pattern id="satori_pattern_id-1_0" x="0" y="0" width="1" height="1" patternUnits="objectBoundingBox"><linearGradient id="satori_biid-1_0" x1="0" y1="0" x2="1" y2="0" spreadMethod="pad"><stop offset="0%" stop-color="rgb(0, 124, 240)"/><stop offset="100%" stop-color="rgb(0, 223, 216)"/></linearGradient><rect x="0" y="0" width="482" height="73" fill="url(#satori_biid-1_0)"/></pattern></defs><mask id="satori_om-id-1"><rect x="159" y="200" width="482" height="73" fill="#fff"/></mask><rect x="159" y="200" width="482" height="73" fill="url(#satori_pattern_id-1_0)" clip-path="url(#satori_bct-id-1)"/></svg>